<!DOCTYPE svg PUBLIC "-//W3C//DTD SVG 1.1//EN" "http://www.w3.org/Graphics/SVG/1.1/DTD/svg11.dtd">
<!-- Uploaded to: SVG Repo, www.svgrepo.com, Transformed by: SVG Repo Mixer Tools -->
<svg width="800px" height="800px" viewBox="-2.4 -2.4 28.80 28.80" fill="none" xmlns="http://www.w3.org/2000/svg">
<g id="SVGRepo_bgCarrier" stroke-width="0" transform="translate(1.1999999999999993,1.1999999999999993), scale(0.9)">
<path transform="translate(-2.4, -2.4), scale(1.7999999999999998)" fill="#1f4e45" d="M9.166.33a2.25 2.25 0 00-2.332 0l-5.25 3.182A2.25 2.25 0 00.5 5.436v5.128a2.25 2.25 0 001.084 1.924l5.25 3.182a2.25 2.25 0 002.332 0l5.25-3.182a2.25 2.25 0 001.084-1.924V5.436a2.25 2.25 0 00-1.084-1.924L9.166.33z" strokewidth="0"/>
</g>
<g id="SVGRepo_tracerCarrier" stroke-linecap="round" stroke-linejoin="round"/>
<g id="SVGRepo_iconCarrier"> <path d="M11 16L13 8" stroke="#8ef5da" stroke-width="2" stroke-linecap="round"/> <path d="M17 15L19.6961 12.3039V12.3039C19.8639 12.1361 19.8639 11.8639 19.6961 11.6961V11.6961L17 9" stroke="#8ef5da" stroke-width="2" stroke-linecap="round" stroke-linejoin="round"/> <path d="M7 9L4.32151 11.6785V11.6785C4.14394 11.8561 4.14394 12.1439 4.32151 12.3215V12.3215L7 15" stroke="#8ef5da" stroke-width="2" stroke-linecap="round" stroke-linejoin="round"/> </g>
</svg>